{
  "asset": {
    "version": "2.0",
    "generator": "postretro test fixture (M10 joint hit zones)"
  },
  "scene": 0,
  "scenes": [
    {
      "nodes": [
        0,
        1
      ]
    }
  ],
  "nodes": [
    {
      "name": "mesh_node",
      "mesh": 0,
      "skin": 0
    },
    {
      "name": "joint_root",
      "children": [
        2,
        3
      ],
      "extras": {
        "hitZone": "torso",
        "hitZoneRadius": 0.5,
        "ignored_extra_key": "the loader ignores unknown per-node extras keys"
      }
    },
    {
      "name": "joint_head_leaf",
      "extras": {
        "hitZone": "head"
      }
    },
    {
      "name": "joint_untagged_leaf",
      "extras": {
        "someOtherTool": "metadata with no hitZone tag"
      }
    }
  ],
  "meshes": [
    {
      "primitives": [
        {
          "attributes": {
            "POSITION": 0,
            "JOINTS_0": 1,
            "WEIGHTS_0": 2
          },
          "indices": 3,
          "mode": 4
        }
      ]
    }
  ],
  "skins": [
    {
      "joints": [
        2,
        1,
        3
      ],
      "inverseBindMatrices": 4
    }
  ],
  "accessors": [
    {
      "bufferView": 0,
      "byteOffset": 0,
      "componentType": 5126,
      "count": 3,
      "type": "VEC3",
      "min": [0, 0, 0],
      "max": [1, 1, 0]
    },
    {
      "bufferView": 1,
      "byteOffset": 0,
      "componentType": 5121,
      "count": 3,
      "type": "VEC4"
    },
    {
      "bufferView": 2,
      "byteOffset": 0,
      "componentType": 5126,
      "count": 3,
      "type": "VEC4"
    },
    {
      "bufferView": 3,
      "byteOffset": 0,
      "componentType": 5123,
      "count": 3,
      "type": "SCALAR"
    },
    {
      "bufferView": 4,
      "byteOffset": 0,
      "componentType": 5126,
      "count": 3,
      "type": "MAT4"
    }
  ],
  "bufferViews": [
    { "buffer": 0, "byteOffset": 0, "byteLength": 36 },
    { "buffer": 0, "byteOffset": 36, "byteLength": 12 },
    { "buffer": 0, "byteOffset": 48, "byteLength": 48 },
    { "buffer": 0, "byteOffset": 96, "byteLength": 6 },
    { "buffer": 0, "byteOffset": 104, "byteLength": 192 }
  ],
  "buffers": [
    {
      "byteLength": 296,
      "uri": "data:application/octet-stream;base64,"
    }
  ]
}
