{
  "asset": {
    "version": "2.0",
    "generator": "postretro test fixture (M10 multi-clip)"
  },
  "scene": 0,
  "scenes": [
    {
      "nodes": [
        0,
        1
      ]
    }
  ],
  "nodes": [
    {
      "name": "mesh_node",
      "mesh": 0,
      "skin": 0
    },
    {
      "name": "joint_root",
      "children": [
        2
      ]
    },
    {
      "name": "joint_child"
    }
  ],
  "meshes": [
    {
      "primitives": [
        {
          "attributes": {
            "POSITION": 0,
            "JOINTS_0": 1,
            "WEIGHTS_0": 2
          },
          "indices": 3,
          "mode": 4
        }
      ]
    }
  ],
  "skins": [
    {
      "joints": [
        1,
        2
      ],
      "inverseBindMatrices": 4
    }
  ],
  "animations": [
    {
      "name": "idle",
      "channels": [
        {
          "sampler": 0,
          "target": {
            "node": 1,
            "path": "rotation"
          }
        }
      ],
      "samplers": [
        {
          "input": 5,
          "output": 6,
          "interpolation": "LINEAR"
        }
      ]
    },
    {
      "name": "walk",
      "channels": [
        {
          "sampler": 0,
          "target": {
            "node": 1,
            "path": "translation"
          }
        },
        {
          "sampler": 1,
          "target": {
            "node": 2,
            "path": "translation"
          }
        }
      ],
      "samplers": [
        {
          "input": 7,
          "output": 8,
          "interpolation": "STEP"
        },
        {
          "input": 9,
          "output": 10,
          "interpolation": "CUBICSPLINE"
        }
      ]
    }
  ],
  "accessors": [
    {
      "bufferView": 0,
      "byteOffset": 0,
      "componentType": 5126,
      "count": 3,
      "type": "VEC3",
      "min": [0, 0, 0],
      "max": [1, 1, 0]
    },
    {
      "bufferView": 1,
      "byteOffset": 0,
      "componentType": 5121,
      "count": 3,
      "type": "VEC4"
    },
    {
      "bufferView": 2,
      "byteOffset": 0,
      "componentType": 5126,
      "count": 3,
      "type": "VEC4"
    },
    {
      "bufferView": 3,
      "byteOffset": 0,
      "componentType": 5123,
      "count": 3,
      "type": "SCALAR"
    },
    {
      "bufferView": 4,
      "byteOffset": 0,
      "componentType": 5126,
      "count": 2,
      "type": "MAT4"
    },
    {
      "bufferView": 5,
      "byteOffset": 0,
      "componentType": 5126,
      "count": 2,
      "type": "SCALAR",
      "min": [0.0],
      "max": [1.0]
    },
    {
      "bufferView": 6,
      "byteOffset": 0,
      "componentType": 5126,
      "count": 2,
      "type": "VEC4"
    },
    {
      "bufferView": 7,
      "byteOffset": 0,
      "componentType": 5126,
      "count": 3,
      "type": "SCALAR",
      "min": [0.0],
      "max": [2.0]
    },
    {
      "bufferView": 8,
      "byteOffset": 0,
      "componentType": 5126,
      "count": 3,
      "type": "VEC3"
    },
    {
      "bufferView": 9,
      "byteOffset": 0,
      "componentType": 5126,
      "count": 2,
      "type": "SCALAR",
      "min": [0.0],
      "max": [1.0]
    },
    {
      "bufferView": 10,
      "byteOffset": 0,
      "componentType": 5126,
      "count": 6,
      "type": "VEC3"
    }
  ],
  "bufferViews": [
    { "buffer": 0, "byteOffset": 0, "byteLength": 36 },
    { "buffer": 0, "byteOffset": 36, "byteLength": 12 },
    { "buffer": 0, "byteOffset": 48, "byteLength": 48 },
    { "buffer": 0, "byteOffset": 96, "byteLength": 6 },
    { "buffer": 0, "byteOffset": 104, "byteLength": 128 },
    { "buffer": 0, "byteOffset": 232, "byteLength": 8 },
    { "buffer": 0, "byteOffset": 240, "byteLength": 32 },
    { "buffer": 0, "byteOffset": 272, "byteLength": 12 },
    { "buffer": 0, "byteOffset": 284, "byteLength": 36 },
    { "buffer": 0, "byteOffset": 320, "byteLength": 8 },
    { "buffer": 0, "byteOffset": 328, "byteLength": 72 }
  ],
  "buffers": [
    {
      "byteLength": 400,
      "uri": "data:application/octet-stream;base64,"
    }
  ]
}
